<svg width="19" height="19" viewBox="0 0 19 19" fill="none" xmlns="http://www.w3.org/2000/svg">
<path d="M5.37334 5.96719C5.42854 6.02284 5.49421 6.06701 5.56656 6.09715C5.63892 6.1273 5.71652 6.14282 5.7949 6.14282C5.87329 6.14282 5.95089 6.1273 6.02325 6.09715C6.0956 6.06701 6.16127 6.02284 6.21647 5.96719L8.94772 3.23594V17.2188C8.94772 17.3762 9.01027 17.5272 9.12162 17.6386C9.23297 17.7499 9.38399 17.8125 9.54147 17.8125C9.69894 17.8125 9.84996 17.7499 9.96131 17.6386C10.0727 17.5272 10.1352 17.3762 10.1352 17.2188V3.25375L12.8487 5.96719C12.9622 6.06446 13.1083 6.11529 13.2578 6.10952C13.4072 6.10374 13.549 6.0418 13.6547 5.93605C13.7605 5.83031 13.8224 5.68856 13.8282 5.53913C13.8339 5.38969 13.7831 5.24359 13.6858 5.13L9.90959 1.34781C9.80945 1.2481 9.67388 1.19212 9.53256 1.19212C9.39124 1.19212 9.25568 1.2481 9.15553 1.34781L5.37334 5.13C5.26276 5.24125 5.20068 5.39173 5.20068 5.54859C5.20068 5.70545 5.26276 5.85594 5.37334 5.96719Z" fill="#242225"/>
</svg>
