<svg width="24" height="24" viewBox="0 0 24 24" fill="none" xmlns="http://www.w3.org/2000/svg">
<path d="M21.92 7.24999V7.37999L20.46 12.78C20.2875 13.4209 19.9072 13.9865 19.3788 14.3883C18.8504 14.79 18.2037 15.0051 17.54 15H9.89001C9.139 15.003 8.41417 14.7243 7.85871 14.2188C7.30326 13.7134 6.95759 13.018 6.89001 12.27L6.24001 4.90999C6.21748 4.66067 6.10226 4.42887 5.91711 4.26038C5.73195 4.09189 5.49034 3.99898 5.24001 3.99999H3.07001C2.80479 3.99999 2.55044 3.89464 2.3629 3.7071C2.17536 3.51956 2.07001 3.26521 2.07001 2.99999C2.07001 2.73478 2.17536 2.48042 2.3629 2.29289C2.55044 2.10535 2.80479 1.99999 3.07001 1.99999H5.24001C5.99101 1.99695 6.71585 2.27569 7.2713 2.78115C7.82676 3.28662 8.17242 3.98203 8.24001 4.72999V4.99999H19.93C20.2151 4.99776 20.4973 5.05649 20.7578 5.17225C21.0184 5.28802 21.2511 5.45813 21.4405 5.67121C21.6299 5.88428 21.7716 6.13537 21.856 6.40767C21.9404 6.67996 21.9657 6.96715 21.93 7.24999H21.92Z" fill="#215BD4"/>
<path d="M9.07001 22C10.4507 22 11.57 20.8807 11.57 19.5C11.57 18.1193 10.4507 17 9.07001 17C7.68929 17 6.57001 18.1193 6.57001 19.5C6.57001 20.8807 7.68929 22 9.07001 22Z" fill="#215BD4"/>
<path d="M17.07 22C18.4507 22 19.57 20.8807 19.57 19.5C19.57 18.1193 18.4507 17 17.07 17C15.6893 17 14.57 18.1193 14.57 19.5C14.57 20.8807 15.6893 22 17.07 22Z" fill="#215BD4"/>
</svg>
