<svg width="17" height="20" viewBox="0 0 17 20" fill="none" xmlns="http://www.w3.org/2000/svg">
<path d="M0 17.6071C0 18.6127 0.815848 19.4286 1.82143 19.4286H15.1786C16.1842 19.4286 17 18.6127 17 17.6071V7.28571H0V17.6071ZM12.1429 10.1696C12.1429 9.9192 12.3478 9.71429 12.5982 9.71429H14.1161C14.3665 9.71429 14.5714 9.9192 14.5714 10.1696V11.6875C14.5714 11.9379 14.3665 12.1429 14.1161 12.1429H12.5982C12.3478 12.1429 12.1429 11.9379 12.1429 11.6875V10.1696ZM12.1429 15.0268C12.1429 14.7763 12.3478 14.5714 12.5982 14.5714H14.1161C14.3665 14.5714 14.5714 14.7763 14.5714 15.0268V16.5446C14.5714 16.7951 14.3665 17 14.1161 17H12.5982C12.3478 17 12.1429 16.7951 12.1429 16.5446V15.0268ZM7.28571 10.1696C7.28571 9.9192 7.49063 9.71429 7.74107 9.71429H9.25893C9.50938 9.71429 9.71429 9.9192 9.71429 10.1696V11.6875C9.71429 11.9379 9.50938 12.1429 9.25893 12.1429H7.74107C7.49063 12.1429 7.28571 11.9379 7.28571 11.6875V10.1696ZM7.28571 15.0268C7.28571 14.7763 7.49063 14.5714 7.74107 14.5714H9.25893C9.50938 14.5714 9.71429 14.7763 9.71429 15.0268V16.5446C9.71429 16.7951 9.50938 17 9.25893 17H7.74107C7.49063 17 7.28571 16.7951 7.28571 16.5446V15.0268ZM2.42857 10.1696C2.42857 9.9192 2.63348 9.71429 2.88393 9.71429H4.40179C4.65223 9.71429 4.85714 9.9192 4.85714 10.1696V11.6875C4.85714 11.9379 4.65223 12.1429 4.40179 12.1429H2.88393C2.63348 12.1429 2.42857 11.9379 2.42857 11.6875V10.1696ZM2.42857 15.0268C2.42857 14.7763 2.63348 14.5714 2.88393 14.5714H4.40179C4.65223 14.5714 4.85714 14.7763 4.85714 15.0268V16.5446C4.85714 16.7951 4.65223 17 4.40179 17H2.88393C2.63348 17 2.42857 16.7951 2.42857 16.5446V15.0268ZM15.1786 2.42857H13.3571V0.607143C13.3571 0.273214 13.0839 0 12.75 0H11.5357C11.2018 0 10.9286 0.273214 10.9286 0.607143V2.42857H6.07143V0.607143C6.07143 0.273214 5.79821 0 5.46429 0H4.25C3.91607 0 3.64286 0.273214 3.64286 0.607143V2.42857H1.82143C0.815848 2.42857 0 3.24442 0 4.25V6.07143H17V4.25C17 3.24442 16.1842 2.42857 15.1786 2.42857Z" fill="white"/>
</svg>
