<svg width="18" height="21" viewBox="0 0 18 21" fill="none" xmlns="http://www.w3.org/2000/svg">
<path d="M17.0775 6.43624C17.0775 6.43042 17.0775 6.42459 17.0723 6.42459C17.0723 6.41295 17.0671 6.40713 17.0671 6.39548C17.0671 6.38966 17.0619 6.37802 17.0619 6.37219C17.0619 6.36637 17.0567 6.36055 17.0567 6.35473C17.0463 6.32561 17.0358 6.30232 17.0202 6.27903L13.6308 0.718688C13.5578 0.596419 13.4379 0.52655 13.3075 0.52655H9.99111H8.01483H4.69844C4.56808 0.52655 4.44815 0.596419 4.37515 0.718688L0.985757 6.27903C0.970113 6.30232 0.959684 6.33144 0.949255 6.35473C0.949255 6.36055 0.944041 6.36637 0.944041 6.37219C0.938827 6.37802 0.938827 6.38966 0.938827 6.39548C0.938827 6.40713 0.933612 6.41295 0.933612 6.42459C0.933612 6.43042 0.933612 6.43624 0.928397 6.43624C0.923183 6.46535 0.917969 6.49446 0.917969 6.52357V19.9907C0.917969 20.2294 1.09526 20.4274 1.30905 20.4274H16.6969C16.9107 20.4274 17.088 20.2294 17.088 19.9907V6.52357C17.0828 6.49446 17.0828 6.46535 17.0775 6.43624ZM15.9512 6.0869H10.8984L10.4239 1.3999H13.0937L15.9512 6.0869ZM7.83754 6.96025H10.158V10.1625L9.22458 9.42893C9.15679 9.37653 9.07858 9.34742 9.00036 9.34742C8.92214 9.34742 8.84393 9.37653 8.77614 9.42893L7.84275 10.1625V6.96025H7.83754ZM9.63652 1.3999L10.111 6.0869H7.88447L8.35898 1.3999H9.63652ZM4.90702 1.3999H7.57682L7.1023 6.0869H2.0495L4.90702 1.3999ZM16.3006 19.554H1.70014V6.96025H7.06059V11.001C7.06059 11.164 7.14402 11.3154 7.26917 11.3911C7.39953 11.4668 7.55596 11.4551 7.67589 11.3619L9.00036 10.3197L10.3248 11.3619C10.3926 11.4144 10.4708 11.4435 10.5491 11.4435C10.6116 11.4435 10.6742 11.426 10.7316 11.3969C10.8619 11.3212 10.9401 11.1698 10.9401 11.0068V6.96607H16.3006V19.554Z" fill="#242225"/>
<path d="M6.13197 14.8088H3.35788C3.14409 14.8088 2.9668 15.0067 2.9668 15.2454C2.9668 15.4842 3.14409 15.6821 3.35788 15.6821H6.13197C6.34576 15.6821 6.52305 15.4842 6.52305 15.2454C6.52305 15.0067 6.34576 14.8088 6.13197 14.8088Z" fill="#242225"/>
<path d="M4.74492 16.6428H3.35788C3.14409 16.6428 2.9668 16.8408 2.9668 17.0795C2.9668 17.3182 3.14409 17.5161 3.35788 17.5161H4.74492C4.95872 17.5161 5.13601 17.3182 5.13601 17.0795C5.13601 16.8408 4.95872 16.6428 4.74492 16.6428Z" fill="#242225"/>
</svg>
