<svg width="40" height="40" viewBox="0 0 40 40" fill="none" xmlns="http://www.w3.org/2000/svg">
<path d="M34.6562 30.2422L24.4062 19.9531L34.6797 9.79688C35.1016 9.375 35.1016 8.6875 34.6797 8.26563L31.7578 5.32812C31.5547 5.125 31.2813 5.01562 30.9922 5.01562C30.7031 5.01562 30.4297 5.13281 30.2266 5.32812L20 15.4531L9.75781 5.33594C9.55469 5.13281 9.28125 5.02344 8.99219 5.02344C8.70312 5.02344 8.42969 5.14063 8.22656 5.33594L5.3125 8.27344C4.89063 8.69531 4.89063 9.38281 5.3125 9.80469L15.5859 19.9609L5.34375 30.2422C5.14063 30.4453 5.02344 30.7188 5.02344 31.0078C5.02344 31.2969 5.13281 31.5703 5.34375 31.7734L8.26563 34.7109C8.47656 34.9219 8.75 35.0313 9.03125 35.0313C9.30469 35.0313 9.58594 34.9297 9.79688 34.7109L20 24.4609L30.2109 34.7031C30.4219 34.9141 30.6953 35.0234 30.9766 35.0234C31.25 35.0234 31.5312 34.9219 31.7422 34.7031L34.6641 31.7656C34.8672 31.5625 34.9844 31.2891 34.9844 31C34.9766 30.7187 34.8594 30.4453 34.6562 30.2422Z" fill="#215BD4"/>
</svg>
