<svg width="25" height="25" viewBox="0 0 25 25" fill="none" xmlns="http://www.w3.org/2000/svg">
<path d="M21.6602 18.9014L15.2539 12.4707L21.6748 6.12305C21.9385 5.85937 21.9385 5.42969 21.6748 5.16602L19.8486 3.33008C19.7217 3.20312 19.5508 3.13477 19.3701 3.13477C19.1895 3.13477 19.0186 3.20801 18.8916 3.33008L12.5 9.6582L6.09863 3.33496C5.97168 3.20801 5.80078 3.13965 5.62012 3.13965C5.43945 3.13965 5.26855 3.21289 5.1416 3.33496L3.32031 5.1709C3.05664 5.43457 3.05664 5.86426 3.32031 6.12793L9.74121 12.4756L3.33984 18.9014C3.21289 19.0283 3.13965 19.1992 3.13965 19.3799C3.13965 19.5605 3.20801 19.7314 3.33984 19.8584L5.16602 21.6943C5.29785 21.8262 5.46875 21.8945 5.64453 21.8945C5.81543 21.8945 5.99121 21.831 6.12305 21.6943L12.5 15.2881L18.8818 21.6894C19.0137 21.8213 19.1846 21.8896 19.3604 21.8896C19.5312 21.8896 19.707 21.8262 19.8389 21.6894L21.665 19.8535C21.792 19.7266 21.8652 19.5557 21.8652 19.375C21.8604 19.1992 21.7871 19.0283 21.6602 18.9014Z" fill="white"/>
</svg>
