<svg width="15" height="22" viewBox="0 0 15 22" fill="none" xmlns="http://www.w3.org/2000/svg">
<g clip-path="url(#clip0_9_805)">
<path d="M1.39999 21.8C0.599994 21.8 0 21.2 0 20.4V13.7C0 12.9 0.599994 12.3 1.39999 12.3C2.19999 12.3 2.80002 12.9 2.80002 13.7V20.4C2.80002 21.2 2.19999 21.8 1.39999 21.8Z" fill="#215BD4"/>
<path d="M7.29999 21.9C6.49999 21.9 5.89996 21.3 5.89996 20.5V1.29999C5.89996 0.499988 6.49999 -0.100006 7.29999 -0.100006C8.09999 -0.100006 8.69998 0.499988 8.69998 1.29999V20.5C8.69998 21.3 8.09999 21.9 7.29999 21.9Z" fill="#215BD4"/>
<path d="M13.6 21.6C12.8 21.6 12.2 21 12.2 20.2V7.10001C12.2 6.30001 12.8 5.70001 13.6 5.70001C14.4 5.70001 15 6.30001 15 7.10001V20.2C15 21 14.4 21.6 13.6 21.6Z" fill="#215BD4"/>
</g>
<defs>
<clipPath id="clip0_9_805">
<rect width="15" height="22" fill="white"/>
</clipPath>
</defs>
</svg>
