<svg width="21" height="21" viewBox="0 0 21 21" fill="none" xmlns="http://www.w3.org/2000/svg">
<path d="M19.7298 12.7905L18.6818 13.1229L16.1033 3.04289C16.0735 2.91655 15.9961 2.81017 15.8889 2.74368C15.7877 2.67718 15.6627 2.66389 15.5495 2.69713L11.1429 4.10009L8.62399 4.90464L4.64613 6.16797L3.59211 2.03887C3.55638 1.89924 3.46706 1.7862 3.35392 1.72636L0.638492 0.310103C0.412207 0.190419 0.150192 0.303453 0.0430041 0.54947C-0.0641838 0.802136 0.0370491 1.0947 0.25738 1.21438L2.7882 2.53755L3.90772 6.91932C3.90772 6.91932 3.90772 6.91932 3.90772 6.92597L6.00384 15.1509C5.59891 15.3836 5.26544 15.7427 5.03915 16.1948C4.73545 16.7999 4.66399 17.5047 4.83668 18.1696C5.12252 19.28 6.03957 20.058 7.07572 20.058C7.29009 20.058 7.50447 20.0247 7.71289 19.9582C8.30838 19.7654 8.80859 19.3266 9.10633 18.7215C9.35048 18.2295 9.44576 17.6709 9.38026 17.1191L18.4853 14.2267H18.4912L19.974 13.7546C20.2122 13.6815 20.3492 13.4022 20.2836 13.1362C20.2122 12.8703 19.9621 12.7173 19.7298 12.7905ZM11.5657 7.57758L10.863 7.30497C10.6844 7.23182 10.4879 7.29832 10.3688 7.46454L9.90429 8.10951L9.29689 5.72913L10.9583 5.20385L11.5657 7.57758ZM8.32624 18.2427C8.14164 18.6151 7.83199 18.8877 7.46874 19.0007C7.33773 19.0406 7.20673 19.0606 7.07572 19.0606C6.43855 19.0606 5.87283 18.5819 5.70014 17.897C5.59295 17.4847 5.64059 17.0526 5.82519 16.6802C6.0098 16.3079 6.31945 16.0352 6.6827 15.9222C6.8137 15.8823 6.94471 15.8624 7.07572 15.8624C7.71289 15.8624 8.27861 16.3411 8.4513 17.026C8.55848 17.4382 8.51085 17.8704 8.32624 18.2427ZM9.09442 16.1749C8.68949 15.377 7.92131 14.865 7.07572 14.865C7.00426 14.865 6.93876 14.8717 6.8673 14.8783L4.89028 7.13209L8.43939 6.00174L9.28498 9.30635C9.33262 9.48587 9.46363 9.61885 9.62441 9.65875C9.65418 9.6654 9.68396 9.6654 9.71373 9.6654C9.84474 9.6654 9.97575 9.59891 10.0591 9.47922L10.869 8.35552L12.0838 8.83426C12.1314 8.85421 12.185 8.86086 12.2386 8.86086C12.4828 8.86086 12.6852 8.63479 12.6852 8.36217C12.6852 8.30233 12.6733 8.24249 12.6554 8.1893L11.8218 4.91794L15.3709 3.78759L17.8243 13.3889L9.09442 16.1749Z" fill="#242225"/>
</svg>
