<svg width="20" height="16" viewBox="0 0 20 16" fill="none" xmlns="http://www.w3.org/2000/svg">
<g clip-path="url(#clip0_130_2333)">
<path d="M11.5 0C12.3281 0 13 0.671562 13 1.5V3H14.5844C15.1156 3 15.5969 3.20937 16 3.58437L18.4156 6C18.7906 6.375 19 6.88438 19 7.41563V11C19.5531 11 20 11.4469 20 12C20 12.5531 19.5531 13 19 13H18C18 14.6562 16.6562 16 15 16C13.3156 16 12 14.6562 12 13H8C8 14.6562 6.65625 16 5 16C3.31562 16 2 14.6562 2 13H1.5C0.671562 13 0 12.3281 0 11.5V1.5C0 0.671562 0.671562 0 1.5 0H11.5ZM13 5V8H17V7.41563L14.5844 5H13ZM5 11.5C4.17188 11.5 3.5 12.1719 3.5 13C3.5 13.8281 4.17188 14.5 5 14.5C5.82812 14.5 6.5 13.8281 6.5 13C6.5 12.1719 5.82812 11.5 5 11.5ZM15 14.5C15.8281 14.5 16.5 13.8281 16.5 13C16.5 12.1719 15.8281 11.5 15 11.5C14.1719 11.5 13.5 12.1719 13.5 13C13.5 13.8281 14.1719 14.5 15 14.5Z" fill="#215BD4"/>
</g>
<defs>
<clipPath id="clip0_130_2333">
<rect width="20" height="16" fill="white"/>
</clipPath>
</defs>
</svg>
