<svg width="21" height="21" viewBox="0 0 21 21" fill="none" xmlns="http://www.w3.org/2000/svg">
<g clip-path="url(#clip0_128_1752)">
<path d="M9.1875 11.8125H5.25V13.125H9.1875V11.8125Z" fill="#242225"/>
<path d="M11.8125 14.4375H5.25V15.75H11.8125V14.4375Z" fill="#242225"/>
<path d="M17.0625 2.625H3.9375C3.58954 2.62543 3.25595 2.76385 3.0099 3.0099C2.76385 3.25595 2.62543 3.58954 2.625 3.9375V17.0625C2.62543 17.4105 2.76385 17.7441 3.0099 17.9901C3.25595 18.2361 3.58954 18.3746 3.9375 18.375H17.0625C17.4105 18.3746 17.7441 18.2361 17.9901 17.9901C18.2361 17.7441 18.3746 17.4105 18.375 17.0625V3.9375C18.3746 3.58954 18.2361 3.25595 17.9901 3.0099C17.7441 2.76385 17.4105 2.62543 17.0625 2.625ZM11.8125 3.9375V6.5625H9.1875V3.9375H11.8125ZM3.9375 17.0625V3.9375H7.875V7.875H13.125V3.9375H17.0625L17.0633 17.0625H3.9375Z" fill="#242225"/>
</g>
<defs>
<clipPath id="clip0_128_1752">
<rect width="21" height="21" fill="white"/>
</clipPath>
</defs>
</svg>
