<svg width="30" height="30" viewBox="0 0 30 30" fill="none" xmlns="http://www.w3.org/2000/svg">
<path d="M17.2988 21.9063C17.2913 21.9088 16.6 22.1388 16 22.1388C15.6688 22.1388 15.535 22.07 15.4925 22.04C15.2825 21.8938 14.8925 21.62 15.56 20.29L16.81 17.7975C17.5513 16.3175 17.6613 14.8863 17.1163 13.7662C16.6713 12.85 15.8175 12.2213 14.7163 11.9963C14.32 11.915 13.9175 11.875 13.5188 11.875C11.2075 11.875 9.6513 13.225 9.5863 13.2825C9.36255 13.48 9.31005 13.8075 9.4588 14.065C9.6088 14.3225 9.91755 14.44 10.2025 14.3425C10.2088 14.34 10.9013 14.1088 11.5013 14.1088C11.83 14.1088 11.9625 14.1775 12.0038 14.2063C12.215 14.3538 12.6063 14.6313 11.94 15.9588L10.69 18.4525C9.94755 19.9338 9.8388 21.365 10.3838 22.4838C10.8288 23.4 11.6813 24.0288 12.785 24.2538C13.1775 24.3325 13.58 24.375 13.9775 24.375C16.29 24.375 17.8475 23.025 17.9125 22.9675C18.1363 22.7713 18.1888 22.4425 18.04 22.185C17.89 21.9288 17.5788 21.8138 17.2988 21.9063Z" fill="white"/>
<path d="M16.25 10.6263C17.9759 10.6263 19.375 9.22714 19.375 7.50125C19.375 5.77536 17.9759 4.37625 16.25 4.37625C14.5241 4.37625 13.125 5.77536 13.125 7.50125C13.125 9.22714 14.5241 10.6263 16.25 10.6263Z" fill="white"/>
</svg>
