<svg width="50" height="30" viewBox="0 0 50 30" fill="none" xmlns="http://www.w3.org/2000/svg">
<rect width="50" height="30" rx="5" fill="#D9D9D9"/>
<g clip-path="url(#clip0_24_508)">
<path d="M29.833 8C25.285 8 21.6673 11.6694 21.6673 16.1657C21.6673 20.7137 25.3367 24.3314 29.833 24.3314C34.3292 24.3314 37.9986 20.662 37.9986 16.1657C37.9986 11.6694 34.3292 8 29.833 8ZM29.833 19.2149C28.1792 19.2149 26.7838 17.8195 26.7838 16.1657C26.7838 14.5119 28.1792 13.1165 29.833 13.1165C31.4868 13.1165 32.8822 14.5119 32.8822 16.1657C32.8306 17.8195 31.4868 19.2149 29.833 19.2149Z" fill="#8B3FFD"/>
<path d="M21.6152 10.3774V22.2642H18.7211L15 10.3774H21.6152Z" fill="#8B3FFD"/>
</g>
<defs>
<clipPath id="clip0_24_508">
<rect width="23" height="16.3314" fill="white" transform="translate(15 8)"/>
</clipPath>
</defs>
</svg>
