<svg width="16" height="15" viewBox="0 0 16 15" fill="none" xmlns="http://www.w3.org/2000/svg">
<rect width="4.70668" height="1.17667" transform="matrix(-0.72086 0.693081 0.72086 0.693081 3.39282 10.6968)" fill="#215BD4"/>
<path fill-rule="evenodd" clip-rule="evenodd" d="M8.31256 12.3004C5.17462 12.3004 2.74654 9.78757 2.74654 6.83354C2.74654 3.8795 5.17462 1.36671 8.31256 1.36671C11.4505 1.36671 13.8786 3.8795 13.8786 6.83354C13.8786 9.78757 11.4505 12.3004 8.31256 12.3004ZM8.31256 13.6671C4.51746 13.6671 1.44092 10.6076 1.44092 6.83354C1.44092 3.05948 4.51746 0 8.31256 0C12.1077 0 15.1842 3.05948 15.1842 6.83354C15.1842 10.6076 12.1077 13.6671 8.31256 13.6671Z" fill="#215BD4"/>
</svg>
