<svg width="50" height="30" viewBox="0 0 50 30" fill="none" xmlns="http://www.w3.org/2000/svg">
<rect width="50" height="30" rx="5" fill="#D9D9D9"/>
<path fill-rule="evenodd" clip-rule="evenodd" d="M25.1232 20.8866C23.7332 22.0583 21.9302 22.7656 19.9599 22.7656C15.5638 22.7656 12 19.2442 12 14.9004C12 10.5565 15.5638 7.03516 19.9599 7.03516C21.9302 7.03516 23.7332 7.74244 25.1232 8.91406C26.5131 7.74244 28.3161 7.03516 30.2864 7.03516C34.6825 7.03516 38.2464 10.5565 38.2464 14.9004C38.2464 19.2442 34.6825 22.7656 30.2864 22.7656C28.3161 22.7656 26.5131 22.0583 25.1232 20.8866Z" fill="#ED0006"/>
<path fill-rule="evenodd" clip-rule="evenodd" d="M25.1232 20.8866C26.8346 19.444 27.9199 17.2975 27.9199 14.9004C27.9199 12.5033 26.8346 10.3567 25.1232 8.91405C26.5131 7.74244 28.3161 7.03516 30.2863 7.03516C34.6825 7.03516 38.2462 10.5565 38.2462 14.9004C38.2462 19.2442 34.6825 22.7656 30.2863 22.7656C28.3161 22.7656 26.5131 22.0583 25.1232 20.8866Z" fill="#F9A000"/>
<path fill-rule="evenodd" clip-rule="evenodd" d="M25.1232 20.8866C26.8346 19.444 27.9199 17.2974 27.9199 14.9004C27.9199 12.5033 26.8346 10.3567 25.1232 8.91406C23.4117 10.3567 22.3265 12.5033 22.3265 14.9004C22.3265 17.2974 23.4117 19.444 25.1232 20.8866Z" fill="#FF5E00"/>
</svg>
