<svg width="20" height="20" viewBox="0 0 20 20" fill="none" xmlns="http://www.w3.org/2000/svg">
<g clip-path="url(#clip0_9_1568)">
<path d="M19.9688 15.1171L19.0605 19.0546C18.933 19.6112 18.4438 20.0007 17.8707 20.0007C8.01562 19.9999 0 11.9843 0 2.12879C0 1.55613 0.389414 1.06629 0.946094 0.939332L4.88359 0.031129C5.45703 -0.101762 6.04297 0.195895 6.28125 0.738941L8.09844 4.97722C8.31086 5.47644 8.16758 6.05808 7.74766 6.40105L5.64453 8.08972C6.97188 10.7936 9.17031 12.9921 11.875 14.3202L13.5969 12.2186C13.9362 11.7975 14.5223 11.6518 15.0215 11.868L19.2598 13.6848C19.7695 13.953 20.1016 14.5468 19.9688 15.1171Z" fill="#215BD4"/>
</g>
<defs>
<clipPath id="clip0_9_1568">
<rect width="20" height="20" fill="white"/>
</clipPath>
</defs>
</svg>
