<svg width="18" height="18" viewBox="0 0 18 18" fill="none" xmlns="http://www.w3.org/2000/svg">
<g clip-path="url(#clip0_9_1642)">
<path d="M17.9719 13.6052L17.1545 17.1489C17.0397 17.6499 16.5994 18.0004 16.0836 18.0004C7.21406 17.9997 0 10.7857 0 1.91573C0 1.40034 0.350473 0.959484 0.851484 0.845226L4.39523 0.0278437C4.91133 -0.0917579 5.43867 0.176133 5.65313 0.664875L7.28859 4.47933C7.47977 4.92863 7.35082 5.4521 6.97289 5.76077L5.08008 7.28058C6.27469 9.71409 8.25328 11.6927 10.6875 12.888L12.2372 10.9966C12.5426 10.6176 13.07 10.4865 13.5193 10.6811L17.3338 12.3162C17.7926 12.5575 18.0914 13.0919 17.9719 13.6052Z" fill="white"/>
</g>
<defs>
<clipPath id="clip0_9_1642">
<rect width="18" height="18" fill="white"/>
</clipPath>
</defs>
</svg>
