<svg width="20" height="20" viewBox="0 0 20 20" fill="none" xmlns="http://www.w3.org/2000/svg">
<g clip-path="url(#clip0_128_2108)">
<path d="M10.0002 0.833336C8.18717 0.833336 6.41489 1.37095 4.90744 2.3782C3.39999 3.38544 2.22507 4.81708 1.53127 6.49207C0.837468 8.16706 0.655937 10.0102 1.00964 11.7883C1.36333 13.5665 2.23637 15.1998 3.51836 16.4818C4.80034 17.7638 6.43368 18.6368 8.21184 18.9905C9.99 19.3442 11.8331 19.1627 13.5081 18.4689C15.1831 17.7751 16.6147 16.6002 17.622 15.0927C18.6292 13.5853 19.1668 11.813 19.1668 10C19.1668 7.56885 18.2011 5.23727 16.482 3.51819C14.7629 1.79911 12.4313 0.833336 10.0002 0.833336ZM14.756 8.08917L8.92267 13.9225C8.76639 14.0787 8.55447 14.1665 8.3335 14.1665C8.11253 14.1665 7.90061 14.0787 7.74433 13.9225L5.24433 11.4225C5.09254 11.2653 5.00854 11.0548 5.01044 10.8363C5.01234 10.6178 5.09998 10.4088 5.25449 10.2543C5.40899 10.0998 5.618 10.0122 5.8365 10.0103C6.055 10.0084 6.2655 10.0924 6.42267 10.2442L8.3335 12.155L13.5777 6.91084C13.7348 6.75904 13.9453 6.67504 14.1638 6.67694C14.3823 6.67884 14.5913 6.76648 14.7459 6.92099C14.9004 7.0755 14.988 7.28451 14.9899 7.503C14.9918 7.7215 14.9078 7.932 14.756 8.08917Z" fill="#18A935"/>
</g>
<defs>
<clipPath id="clip0_128_2108">
<rect width="20" height="20" fill="white"/>
</clipPath>
</defs>
</svg>
