<svg width="21" height="20" viewBox="0 0 21 20" fill="none" xmlns="http://www.w3.org/2000/svg">
<rect width="6.25524" height="1.56381" transform="matrix(-0.72086 0.693081 0.72086 0.693081 4.51306 14.2162)" fill="white"/>
<path fill-rule="evenodd" clip-rule="evenodd" d="M11.0517 16.3473C6.88133 16.3473 3.65438 13.0078 3.65438 9.08186C3.65438 5.15591 6.88133 1.81637 11.0517 1.81637C15.2221 1.81637 18.449 5.15591 18.449 9.08186C18.449 13.0078 15.2221 16.3473 11.0517 16.3473ZM11.0517 18.1637C6.00797 18.1637 1.91921 14.0976 1.91921 9.08186C1.91921 4.06609 6.00797 0 11.0517 0C16.0954 0 20.1842 4.06609 20.1842 9.08186C20.1842 14.0976 16.0954 18.1637 11.0517 18.1637Z" fill="white"/>
</svg>
