<svg width="17" height="17" viewBox="0 0 17 17" fill="none" xmlns="http://www.w3.org/2000/svg">
<path d="M16.937 6.67091C16.7899 6.24644 16.4121 5.93566 15.9574 5.86819L11.5342 5.2105L9.61161 1.21869C9.40921 0.799531 8.97624 0.53125 8.50024 0.53125C8.02424 0.53125 7.59127 0.799531 7.38886 1.21869L5.46627 5.2105L1.04255 5.86819C0.588327 5.93566 0.210608 6.24644 0.0639826 6.67091C-0.0821112 7.09644 0.0283889 7.565 0.349264 7.88481L3.59095 11.1212L2.83923 15.6108C2.76273 16.0629 2.95877 16.5166 3.34286 16.7811C3.55377 16.9262 3.80186 17 4.04995 17C4.25395 17 4.45848 16.9501 4.64389 16.8507L8.50024 14.7746L12.3571 16.8507C12.5425 16.9501 12.7471 17 12.9505 17C13.1986 17 13.4467 16.9262 13.6581 16.7811C14.0422 16.5166 14.2372 16.0629 14.1612 15.6108L13.409 11.1212L16.6517 7.88481C16.9721 7.56447 17.0821 7.09591 16.937 6.67091ZM12.5314 10.2866C12.2594 10.5575 12.1361 10.9395 12.1983 11.314L12.9505 15.8036L9.09364 13.7286C8.90877 13.6287 8.70477 13.5793 8.4997 13.5793C8.2957 13.5793 8.09117 13.6292 7.9063 13.7286L4.04942 15.8036L4.80167 11.314C4.86436 10.9395 4.74111 10.5575 4.46911 10.2866L1.22742 7.05022L5.65061 6.39147C6.05489 6.33144 6.40286 6.07856 6.57658 5.71784L8.50024 1.72709L10.4234 5.71837C10.5976 6.07909 10.9451 6.33144 11.3488 6.392L15.7731 7.05075L12.5314 10.2866Z" fill="#242225"/>
</svg>
