<svg width="30" height="30" viewBox="0 0 30 30" fill="none" xmlns="http://www.w3.org/2000/svg">
<g clip-path="url(#clip0_9_1626)">
<path d="M27.1055 3.71486C26.8454 3.49446 26.5304 3.34865 26.1941 3.29294C25.8577 3.23723 25.5126 3.27369 25.1953 3.39845L3.56251 11.8945C3.18307 12.0391 2.86167 12.3044 2.64781 12.6495C2.43394 12.9947 2.33946 13.4006 2.37891 13.8047C2.41411 14.2087 2.57932 14.5903 2.84976 14.8925C3.1202 15.1946 3.4813 15.4009 3.87891 15.4805L9.37501 16.5703V23.4375C9.37481 23.809 9.48498 24.1722 9.69153 24.481C9.89809 24.7898 10.1917 25.0303 10.5352 25.1719C10.7625 25.2634 11.005 25.3111 11.25 25.3125C11.4963 25.3134 11.7402 25.2651 11.9676 25.1705C12.195 25.076 12.4012 24.937 12.5742 24.7617L15.6211 21.7266L20.2266 25.7813C20.5666 26.0811 21.0037 26.2477 21.457 26.25C21.6564 26.2541 21.8549 26.2224 22.043 26.1563C22.3522 26.0584 22.6306 25.8815 22.8505 25.6431C23.0704 25.4047 23.2243 25.113 23.2969 24.7969L27.7031 5.5547C27.7801 5.22267 27.7652 4.87592 27.6599 4.55175C27.5546 4.22758 27.3629 3.93824 27.1055 3.71486ZM21.4688 24.375L11.8125 15.8789L25.7227 5.83595L21.4688 24.375Z" fill="white"/>
</g>
<defs>
<clipPath id="clip0_9_1626">
<rect width="30" height="30" fill="white"/>
</clipPath>
</defs>
</svg>
