<svg width="24" height="24" viewBox="0 0 24 24" fill="none" xmlns="http://www.w3.org/2000/svg">
<path d="M12 14C14.7614 14 17 11.3137 17 8C17 4.68629 14.7614 2 12 2C9.23858 2 7 4.68629 7 8C7 11.3137 9.23858 14 12 14Z" fill="white"/>
<path d="M21.8 19.1C20.9 17.3 19.2 15.8 17 14.9C16.4 14.7 15.7 14.7 15.2 15C14.2 15.6 13.2 15.9 12 15.9C10.8 15.9 9.79997 15.6 8.79997 15C8.29997 14.8 7.59997 14.7 6.99997 15C4.79997 15.9 3.09997 17.4 2.19997 19.2C1.49997 20.5 2.59997 22 4.09997 22H19.9C21.4 22 22.5 20.5 21.8 19.1Z" fill="white"/>
</svg>
