<svg width="24" height="24" viewBox="0 0 24 24" fill="none" xmlns="http://www.w3.org/2000/svg">
<g clip-path="url(#clip0_9_1620)">
<path d="M11.5 1.70023C14 1.80023 15.8 2.50023 17.6 3.90023C19.8 5.50023 21.1 7.80023 21.6 10.6002C21.7 11.4002 21.8 12.0002 21.8 12.9002C21.8 13.6002 21.9 13.8002 22 14.0002C22.1 14.2002 22.3 14.3002 22.4 14.3002C22.5 14.3002 22.6 14.3002 22.6 14.2002C22.8 14.1002 22.9 13.8002 22.8 13.5002C22.8 13.4002 22.7 13.3002 22.7 12.8002C22.7 11.8002 22.6 11.2002 22.4 10.4002C21.8 7.30023 20.4 4.80023 18 3.10023C16 1.60023 14 0.900228 11.3 0.700228C10.5 0.700228 10.4 0.600228 10.4 0.600228C10.2 0.400228 9.90001 0.500228 9.70001 0.700228C9.80001 0.900228 9.80001 1.20023 10 1.40023C10.4 1.60023 10.7 1.70023 11.5 1.70023Z" fill="white"/>
<path d="M17.9 8.5C18.4 9.4 18.7 10.5 18.7 11.6C18.7 12.3 18.8 12.9 19.4 13.3C19.5 13.3 19.5 13.4 19.6 13.4C19.8 13.4 20 13.3 20 13.1C20.1 12.9 20 12.6 19.8 12.4C19.7 12.4 19.6 12.3 19.6 11.6C19.6 10.3 19.3 9 18.7 8C18.1 6.8 17.1 5.8 16 5.2C15 4.6 13.6 4.2 12.3 4.1C11.9 4.1 11.8 4 11.8 3.9C11.6 3.7 11.3 3.7 11.1 3.9C10.9 4.1 10.9 4.4 11.1 4.6C11.3 4.9 11.8 5 12.2 5C13.4 5.1 14.6 5.5 15.5 6C16.5 6.6 17.3 7.4 17.9 8.5Z" fill="white"/>
<path d="M16.4 10.8003C16.3 10.1003 16.2 9.60033 16 9.20033C15.5 8.20033 14.7 7.60033 13.3 7.50033C12.8 7.40033 12.8 7.40033 12.7 7.30033C12.5 7.10033 12.2 7.00033 12 7.20033C11.8 7.40033 11.8 7.70033 11.9 7.90033C12.2 8.20033 12.5 8.30033 13.1 8.40033C14.1 8.50033 14.7 8.90033 15 9.60033C15.2 10.0003 15.3 10.4003 15.3 10.9003C15.4 11.4003 15.5 11.8003 15.8 12.0003C15.9 12.1003 16 12.1003 16.1 12.1003C16.3 12.1003 16.4 12.0003 16.5 11.9003C16.7 11.7003 16.6 11.4003 16.4 11.2003C16.5 11.2003 16.4 11.2003 16.4 10.8003Z" fill="white"/>
<path d="M22.8 17.8004C22.5 17.5004 20.9 16.2004 20.2 15.7004C19.6 15.3004 18.8 14.8004 18.3 14.6004C17.7 14.3004 17 14.2004 16.4 14.4004C15.9 14.6004 15.7 14.8004 15.1 15.5004C14.8 15.8004 14.6 16.1004 14.6 16.2004C14.6 16.2004 14.5 16.3004 14.4 16.3004C14.1 16.4004 13.6 16.3004 12.7 15.9004C11.9 15.5004 11.3 15.0004 10.5 14.3004C9.80003 13.7004 9.20003 12.9004 8.80003 12.3004C8.30003 11.5004 8.00003 10.5004 8.00003 10.1004C8.00003 9.90039 8.00003 9.60039 8.10003 9.50039L8.20003 9.40039C8.30003 9.30039 8.50003 9.20039 8.70003 9.00039C9.60003 8.30039 9.90003 8.00039 10 7.50039C10.1 7.00039 10 6.40039 9.60003 5.60039C9.00003 4.40039 7.10003 1.80039 6.30003 1.30039C6.20003 1.20039 5.90003 1.10039 5.80003 1.00039C5.40003 0.900391 4.90003 0.900391 4.60003 0.900391C4.20003 1.00039 3.70003 1.30039 2.70003 2.00039C2.20003 2.40039 1.40003 3.20039 1.10003 3.60039C0.600027 4.60039 0.700027 5.40039 1.20003 6.70039C1.90003 8.50039 2.80003 10.3004 3.90003 12.1004C4.10003 12.4004 4.20003 12.6004 4.40003 12.9004C4.60003 13.2004 4.80003 13.4004 5.00003 13.7004C6.80003 16.2004 9.00003 18.3004 11.5 20.0004L11.6 20.1004C11.7 20.2004 11.9 20.3004 12 20.4004L12.3 20.6004C12.5 20.7004 12.6 20.8004 12.8 20.9004L15.6 22.5004C15.8 22.6004 16 22.7004 16.2 22.8004L16.5 22.9004C16.8 23.0004 17.1 23.2004 17.4 23.3004C18 23.5004 18.3 23.6004 18.7 23.6004C18.8 23.6004 18.8 23.6004 18.9 23.6004C19.6 23.6004 20.2 23.3004 20.9 22.8004C21.7 22.2004 22.8 20.9004 23.1 20.1004C23.4 19.2004 23.3 18.4004 22.8 17.8004Z" fill="white"/>
</g>
<defs>
<clipPath id="clip0_9_1620">
<rect width="24" height="24" fill="white"/>
</clipPath>
</defs>
</svg>
