<svg width="50" height="30" viewBox="0 0 50 30" fill="none" xmlns="http://www.w3.org/2000/svg">
<rect width="50" height="30" rx="5" fill="#D9D9D9"/>
<g clip-path="url(#clip0_24_467)">
<path fill-rule="evenodd" clip-rule="evenodd" d="M17.6404 19.9306H15.0039L13.0269 12.1662C12.933 11.8091 12.7338 11.4933 12.4407 11.3445C11.7093 10.9705 10.9033 10.6729 10.024 10.5228V10.2239H14.2712C14.8574 10.2239 15.297 10.6729 15.3703 11.1944L16.396 16.7951L19.0312 10.2239H21.5944L17.6404 19.9306ZM23.0599 19.9306H20.5699L22.6202 10.2239H25.1102L23.0599 19.9306ZM28.3316 12.9129C28.4048 12.3901 28.8445 12.0912 29.3574 12.0912C30.1632 12.0161 31.0412 12.1662 31.774 12.5389L32.2136 10.449C31.4809 10.1501 30.6749 10 29.9435 10C27.5268 10 25.7684 11.3445 25.7684 13.2105C25.7684 14.6301 27.0139 15.3755 27.8932 15.8245C28.8445 16.2723 29.2108 16.5712 29.1375 17.0189C29.1375 17.6906 28.4048 17.9895 27.6734 17.9895C26.7942 17.9895 25.9148 17.7656 25.1102 17.3916L24.6705 19.4828C25.5497 19.8555 26.501 20.0056 27.3803 20.0056C30.09 20.0794 31.774 18.7362 31.774 16.72C31.774 14.1811 28.3316 14.0323 28.3316 12.9129ZM40.488 19.9306L38.511 10.2239H36.3875C35.9478 10.2239 35.5081 10.5228 35.3617 10.9705L31.7007 19.9306H34.2639L34.7755 18.5123H37.9249L38.2179 19.9306H40.488ZM36.7538 12.8379L37.4852 16.4962H35.4349L36.7538 12.8379Z" fill="black"/>
</g>
<defs>
<clipPath id="clip0_24_467">
<rect width="32" height="10.24" fill="white" transform="translate(9 10)"/>
</clipPath>
</defs>
</svg>
