<svg width="50" height="30" viewBox="0 0 50 30" fill="none" xmlns="http://www.w3.org/2000/svg">
<rect width="50" height="30" rx="5" fill="#D9D9D9"/>
<path d="M23.9312 8.71377L21.7178 10.6582L23.6622 12.8716L25.8756 10.9272L23.9312 8.71377Z" fill="#0277BD"/>
<path d="M25.5332 12.5092L23.3198 14.4536L25.2643 16.667L27.4776 14.7226L25.5332 12.5092Z" fill="#0277BD"/>
<path d="M27.0472 16.2611L24.8338 18.2056L26.7782 20.4189L28.9916 18.4745L27.0472 16.2611Z" fill="#0277BD"/>
<path d="M31.7221 18.2143L30.0029 19.7246L31.5132 21.4439L33.2325 19.9335L31.7221 18.2143Z" fill="#0277BD"/>
<path d="M30.2904 14.8992L28.6166 16.3696L30.0871 18.0434L31.7609 16.573L30.2904 14.8992Z" fill="#0277BD"/>
<path d="M28.8862 11.4324L27.2124 12.9028L28.6828 14.5766L30.3566 13.1062L28.8862 11.4324Z" fill="#0277BD"/>
<path d="M27.3943 8.18485L25.7205 9.65527L27.1909 11.3291L28.8647 9.85866L27.3943 8.18485Z" fill="#0277BD"/>
<path d="M30.4608 7.92102L29.371 8.87842L30.3284 9.96824L31.4182 9.01084L30.4608 7.92102Z" fill="#0277BD"/>
<path d="M31.8432 11.1686L30.7534 12.126L31.7108 13.2158L32.8006 12.2584L31.8432 11.1686Z" fill="#0277BD"/>
<path d="M33.2035 14.4161L32.1137 15.3735L33.0711 16.4634L34.1609 15.506L33.2035 14.4161Z" fill="#0277BD"/>
<path d="M23.9312 8.71377L21.7178 10.6582L23.6622 12.8716L25.8756 10.9272L23.9312 8.71377Z" fill="#0277BD"/>
<path d="M25.5333 12.5092L23.3199 14.4536L25.2644 16.667L27.4778 14.7226L25.5333 12.5092Z" fill="#0277BD"/>
<path d="M27.0469 16.2616L24.8336 18.2061L26.778 20.4194L28.9914 18.475L27.0469 16.2616Z" fill="#0277BD"/>
<path d="M31.7221 18.2143L30.0029 19.7246L31.5132 21.4439L33.2325 19.9335L31.7221 18.2143Z" fill="#0277BD"/>
<path d="M30.2904 14.8992L28.6166 16.3696L30.0871 18.0434L31.7609 16.573L30.2904 14.8992Z" fill="#0277BD"/>
<path d="M28.8862 11.4324L27.2123 12.9028L28.6828 14.5766L30.3566 13.1062L28.8862 11.4324Z" fill="#0277BD"/>
<path d="M27.3944 8.18533L25.7206 9.65576L27.191 11.3296L28.8648 9.85915L27.3944 8.18533Z" fill="#0277BD"/>
<path d="M30.4608 7.92102L29.371 8.87842L30.3284 9.96824L31.4182 9.01084L30.4608 7.92102Z" fill="#0277BD"/>
<path d="M31.8432 11.1686L30.7534 12.126L31.7108 13.2158L32.8006 12.2584L31.8432 11.1686Z" fill="#0277BD"/>
<path d="M33.2035 14.4157L32.1136 15.373L33.071 16.4629L34.1609 15.5055L33.2035 14.4157Z" fill="#0277BD"/>
<path d="M28.8376 20.1353L26.6734 22.0365L23.2166 18.1012L24.2222 17.2176L21.7023 14.3493L22.6804 13.49L20.1009 10.553L24.0356 7.09575L25.2819 8.51429L27.4984 6.56775L28.7029 7.93908L29.6475 7.10904C28.2844 6.30375 26.699 5.8335 25 5.8335C19.9372 5.8335 15.8333 9.93741 15.8333 15.0002C15.8333 20.0629 19.9372 24.1668 25 24.1668C27.1367 24.1668 29.0975 23.4298 30.6563 22.2042L28.8376 20.1353Z" fill="#0277BD"/>
</svg>
